<!DOCTYPE svg PUBLIC "-//W3C//DTD SVG 20010904//EN" "http://www.w3.org/TR/2001/REC-SVG-20010904/DTD/svg10.dtd">
<svg version="1.0" xmlns="http://www.w3.org/2000/svg" width="1200px" height="1200px" viewBox="0 0 12000 12000" preserveAspectRatio="xMidYMid meet">
<g id="layer101" fill="#64b4ff" stroke="none">
 <path d="M3800 11872 l0 -129 158 -7 c285 -12 592 -53 732 -98 157 -50 271 -140 372 -293 131 -198 167 -334 193 -719 8 -121 17 -228 21 -238 9 -30 31 -4 49 55 20 69 65 186 127 334 128 304 249 380 361 224 54 -74 86 -143 132 -276 27 -80 45 -120 55 -120 10 0 29 44 60 135 50 150 82 212 148 282 93 99 171 70 271 -99 45 -78 125 -264 161 -378 60 -188 85 -257 94 -259 18 -2 26 60 31 244 8 242 20 363 51 485 83 327 251 537 499 624 118 41 460 85 754 97 l161 7 0 129 0 128 -2215 0 -2215 0 0 -128z"/>
 <path d="M5645 10828 c-96 -84 -258 -540 -305 -859 -14 -97 -9 -145 21 -183 26 -33 53 -47 186 -95 59 -21 173 -67 253 -101 211 -90 197 -87 266 -57 136 60 275 117 369 151 189 69 217 90 231 163 17 93 -130 655 -216 823 -48 94 -122 180 -155 180 -7 0 -20 3 -28 6 -26 10 -91 -60 -125 -133 -62 -137 -93 -317 -112 -668 -12 -220 -19 -293 -30 -300 -12 -7 -19 61 -30 280 -21 440 -77 667 -192 783 -51 52 -83 55 -133 10z"/>
 <path d="M6665 9598 c-59 -22 -313 -206 -322 -234 -4 -11 234 -144 326 -183 84 -35 86 -30 84 187 -1 97 -5 191 -10 207 -10 34 -31 40 -78 23z"/>
 <path d="M5266 9553 c-9 -58 -7 -376 3 -392 7 -11 35 0 137 55 71 37 155 82 186 99 60 31 62 34 50 50 -9 13 -116 102 -162 136 -57 42 -153 89 -181 89 -23 0 -27 -5 -33 -37z"/>
 <path d="M4781 9549 c6 -13 48 -86 91 -162 119 -207 143 -267 108 -267 -5 0 -53 38 -107 85 -77 66 -124 98 -218 144 -66 33 -142 67 -170 76 -76 25 -243 55 -305 55 l-55 0 74 -41 c222 -121 571 -411 571 -475 0 -18 -38 -18 -115 0 -33 7 -80 16 -105 19 -44 6 -43 5 33 -30 75 -35 93 -55 62 -67 -54 -20 -476 -14 -685 10 -37 4 -52 3 -45 -3 12 -12 198 -85 274 -107 54 -16 81 -31 81 -47 0 -17 -70 -26 -162 -21 -115 6 -328 -6 -328 -19 0 -5 14 -9 30 -9 17 0 47 -7 67 -15 57 -24 28 -37 -99 -45 -158 -10 -401 -61 -478 -100 -19 -10 -55 -23 -80 -30 -86 -23 -520 -258 -520 -282 0 -12 9 -10 68 12 52 20 126 29 138 17 11 -11 -6 -25 -89 -73 -128 -74 -212 -141 -352 -286 -130 -133 -193 -210 -297 -365 -66 -97 -156 -269 -146 -279 4 -4 67 38 140 93 73 56 176 127 228 159 186 113 411 204 506 204 80 0 58 -21 -121 -115 -154 -80 -309 -182 -458 -300 -385 -306 -543 -558 -671 -1073 -71 -286 -94 -444 -136 -957 -32 -382 -74 -646 -134 -837 -8 -27 -11 -48 -7 -48 5 0 31 18 58 40 59 46 99 64 109 48 4 -6 -41 -58 -103 -119 -60 -59 -121 -129 -135 -156 -25 -44 -61 -170 -103 -353 -10 -41 -53 -174 -96 -296 -44 -121 -79 -223 -79 -227 0 -15 21 -5 93 43 77 52 97 59 97 37 0 -24 -30 -56 -111 -118 -90 -70 -115 -106 -154 -224 -30 -92 -70 -167 -131 -246 -83 -108 -284 -279 -396 -337 -42 -21 -48 -28 -31 -30 50 -7 336 91 522 179 338 160 725 490 925 788 82 122 276 472 276 497 0 10 -14 91 -30 179 -34 184 -45 276 -36 301 6 15 8 15 27 -2 24 -22 60 -89 90 -169 11 -31 25 -55 31 -53 5 2 46 96 92 208 176 437 360 796 501 981 79 102 252 275 329 327 39 26 77 60 84 75 7 15 22 98 33 185 36 282 91 487 128 480 18 -4 18 -2 3 -183 -23 -269 -25 -338 -10 -333 11 4 139 369 153 441 8 40 33 34 41 -10 12 -64 -8 -289 -32 -367 -9 -28 8 -19 164 85 162 108 251 180 386 309 153 147 258 279 316 395 123 251 168 448 193 840 10 146 15 180 27 180 8 0 18 -15 23 -35 11 -47 14 -479 4 -555 -8 -57 -8 -59 8 -37 19 27 126 259 162 352 91 238 132 413 142 616 5 89 14 171 20 182 12 23 35 20 47 -6 5 -9 10 -129 12 -267 4 -231 5 -247 18 -205 29 94 44 195 54 349 10 176 16 211 35 211 7 0 22 -23 34 -51 13 -28 25 -49 27 -46 3 3 1 31 -5 63 -17 90 -18 88 40 80 46 -6 49 -5 40 11 -5 10 -23 31 -40 47 -37 35 -38 44 -9 48 33 5 45 56 29 122 -8 28 -13 70 -13 94 -1 48 -7 50 -57 20 -331 -201 -782 -544 -1096 -833 -344 -317 -958 -983 -1299 -1411 -87 -108 -166 -194 -178 -194 -18 0 -6 38 30 98 188 315 616 864 948 1217 529 561 1013 978 1454 1251 161 100 210 138 194 153 -30 32 -230 -88 -563 -337 -320 -240 -463 -365 -859 -757 -352 -347 -521 -534 -793 -875 -66 -84 -256 -355 -326 -465 -270 -427 -502 -896 -706 -1425 -75 -194 -262 -763 -411 -1248 -67 -216 -149 -440 -183 -499 -22 -37 -49 -60 -60 -49 -2 2 9 48 26 103 16 54 55 188 87 298 189 669 495 1584 590 1765 13 25 33 74 44 109 24 74 136 300 252 509 348 629 825 1259 1358 1793 230 230 373 358 623 557 95 74 213 168 262 207 50 40 180 134 290 210 210 144 284 200 291 220 13 33 -263 351 -346 399 l-32 18 13 -23z"/>
 <path d="M7160 9529 c-24 -18 -66 -55 -93 -83 -73 -75 -220 -275 -214 -290 8 -21 79 -75 292 -221 110 -76 241 -170 290 -209 50 -40 167 -133 260 -207 212 -168 310 -253 498 -432 473 -447 972 -1066 1324 -1642 164 -267 374 -668 413 -786 11 -35 31 -84 44 -109 97 -184 407 -1115 596 -1785 34 -121 73 -254 86 -295 25 -77 21 -106 -12 -79 -38 31 -130 269 -229 594 -116 379 -277 870 -362 1100 -24 66 -64 174 -88 240 -68 189 -248 574 -358 767 -14 24 -38 68 -54 98 -143 264 -297 510 -452 720 -77 104 -316 408 -331 420 -3 3 -37 41 -75 85 -264 306 -623 665 -945 946 -150 130 -438 361 -536 429 -313 217 -417 275 -438 241 -8 -12 27 -40 134 -106 393 -243 771 -548 1179 -949 364 -359 571 -591 890 -996 185 -235 431 -601 431 -642 0 -42 -31 -16 -141 117 -137 166 -383 457 -430 509 -150 168 -247 276 -348 386 -176 191 -553 565 -676 671 -60 51 -116 99 -123 106 -7 7 -34 29 -60 50 -26 21 -49 40 -52 43 -10 11 -139 111 -240 186 -180 133 -544 374 -566 374 -2 0 -1 -17 2 -39 4 -24 2 -41 -5 -45 -20 -13 -12 -100 14 -151 26 -53 26 -53 -7 -69 -33 -16 -36 -46 -6 -46 13 0 32 -6 41 -13 16 -11 16 -19 7 -64 -7 -29 -10 -61 -7 -70 4 -19 8 -13 36 60 13 34 37 35 45 1 4 -14 11 -97 16 -185 10 -156 26 -258 54 -349 14 -42 15 -30 16 180 0 227 8 296 32 311 22 15 38 -21 38 -87 0 -189 44 -411 128 -649 51 -144 157 -387 187 -427 17 -23 17 -23 11 12 -22 141 -13 587 14 614 20 20 27 -12 34 -162 17 -366 93 -676 221 -907 70 -127 305 -376 489 -520 80 -62 335 -235 347 -235 3 0 0 28 -8 63 -16 79 -28 272 -19 320 8 44 33 50 41 10 14 -72 142 -437 153 -441 15 -5 14 27 -10 323 -15 192 -15 189 3 193 37 7 92 -198 128 -480 11 -87 26 -170 33 -185 7 -15 42 -47 78 -71 79 -53 218 -188 306 -297 157 -193 347 -559 534 -1025 43 -107 83 -196 88 -198 6 -2 20 22 31 53 42 111 92 192 112 179 5 -3 9 -20 9 -38 0 -33 -40 -275 -64 -393 l-13 -62 109 -198 c140 -253 215 -364 337 -499 217 -242 503 -460 762 -583 175 -83 456 -181 519 -181 17 0 1 13 -56 48 -99 60 -224 152 -278 206 -92 90 -197 264 -231 383 -22 76 -53 122 -122 179 -90 75 -133 117 -133 131 0 22 23 15 100 -32 41 -24 78 -45 83 -45 10 0 9 34 -2 46 -24 24 -149 394 -176 519 -30 138 -65 258 -91 311 -16 34 -62 87 -135 158 -60 59 -109 111 -109 116 0 17 20 21 42 9 13 -6 46 -29 75 -50 29 -22 54 -39 57 -39 3 0 -3 24 -13 54 -55 157 -99 437 -131 821 -43 522 -71 715 -146 1000 -142 535 -311 780 -774 1122 -116 85 -235 158 -389 238 -75 40 -117 68 -119 79 -4 17 2 18 59 13 169 -15 441 -151 717 -360 73 -55 135 -97 138 -94 9 8 -74 169 -131 257 -108 165 -198 274 -345 420 -115 115 -218 196 -322 254 -68 38 -96 62 -84 73 12 12 85 3 141 -18 31 -11 59 -19 61 -16 16 16 -407 251 -504 281 -26 8 -69 24 -96 35 -90 39 -381 101 -477 101 -78 0 -129 9 -129 22 0 14 65 38 102 38 25 0 29 3 20 12 -8 8 -79 13 -238 14 -136 2 -231 7 -237 13 -17 17 11 39 71 56 77 22 265 95 277 108 7 6 -10 7 -50 3 -239 -25 -626 -30 -679 -10 -32 12 -14 32 62 67 76 36 76 36 32 31 -25 -3 -75 -12 -112 -20 -84 -18 -108 -18 -108 0 0 64 349 354 571 475 l74 41 -60 0 c-33 0 -105 -9 -160 -19 -214 -41 -396 -130 -542 -264 -59 -55 -101 -83 -110 -73 -10 10 19 74 88 196 93 164 121 219 117 231 -2 6 -23 -4 -48 -22z"/>
 <path d="M5795 9009 c-88 -29 -372 -172 -430 -217 -27 -21 -51 -46 -53 -55 -5 -25 48 -44 175 -63 156 -23 210 -50 147 -74 -14 -6 -86 -10 -160 -10 -74 0 -134 -4 -134 -9 0 -5 47 -41 103 -80 106 -73 155 -116 144 -127 -7 -7 -107 21 -162 46 -22 10 -58 22 -80 26 -38 7 -39 7 -25 -13 118 -165 184 -293 161 -316 -9 -9 -32 9 -106 88 -83 89 -94 98 -102 80 -10 -25 -11 -870 0 -907 10 -36 23 -35 47 4 38 63 135 109 197 93 49 -12 119 -96 173 -210 28 -58 55 -105 59 -105 13 0 18 45 61 515 64 699 115 1114 141 1140 26 26 27 -19 9 -235 -67 -768 -130 -1599 -130 -1721 0 -53 7 -140 15 -195 10 -66 15 -175 15 -329 -1 -268 -11 -398 -42 -544 -20 -91 -23 -133 -21 -296 3 -413 82 -1049 156 -1258 81 -228 178 157 237 946 27 357 26 388 -15 593 -43 211 -57 410 -44 619 4 80 11 160 14 178 2 18 10 94 15 170 11 150 5 323 -31 792 -79 1050 -87 1185 -71 1185 12 0 16 -12 32 -105 22 -133 89 -798 120 -1190 11 -138 27 -276 34 -282 1 -2 26 44 54 103 61 123 109 190 160 221 67 41 107 27 216 -73 38 -35 72 -64 77 -64 19 0 5 765 -17 933 -4 29 -11 47 -19 47 -23 0 -73 -49 -122 -119 -48 -67 -61 -81 -77 -81 -22 0 59 178 130 286 19 28 34 54 34 57 0 8 -124 -27 -189 -53 -120 -47 -96 -10 66 101 57 40 101 74 99 77 -3 2 -81 7 -173 11 -146 5 -168 8 -171 23 -6 31 42 49 152 59 90 8 209 28 255 45 13 4 -89 77 -184 132 -269 154 -566 219 -740 161z"/>
 <path d="M5366 7329 c-34 -36 -70 -76 -79 -89 -14 -22 -16 -123 -22 -920 -8 -985 -2 -1180 39 -1371 47 -219 166 -535 264 -702 98 -165 185 -247 270 -254 77 -6 82 4 40 89 -92 190 -147 541 -177 1134 -5 101 -14 191 -20 203 -11 20 -17 21 -70 15 -111 -12 -163 43 -196 203 -28 139 -5 191 35 81 43 -119 98 -193 141 -186 35 5 78 66 89 128 18 100 31 370 37 750 5 332 4 385 -12 460 -27 132 -71 266 -120 366 -49 97 -84 139 -128 150 -26 6 -35 0 -91 -57z"/>
 <path d="M6482 7356 c-53 -46 -144 -250 -177 -398 -23 -107 -29 -379 -16 -798 16 -502 29 -580 106 -617 27 -13 41 -14 53 -7 32 20 80 106 97 173 19 79 28 96 45 86 30 -18 -18 -239 -65 -301 -44 -57 -120 -78 -201 -55 l-31 9 -6 -272 c-10 -468 -60 -782 -172 -1083 -34 -91 -30 -103 33 -103 56 0 100 27 165 99 172 191 377 699 417 1033 27 229 42 1625 19 1868 -12 134 -42 231 -90 292 -80 101 -123 119 -177 74z"/>
 <path d="M6724 4708 c-6 -7 -25 -56 -43 -108 -41 -119 -160 -366 -234 -487 -90 -144 -236 -263 -323 -263 -18 0 -55 12 -82 26 l-50 26 -47 -21 c-113 -50 -201 -9 -339 158 -95 116 -151 212 -231 401 -62 145 -85 191 -94 186 -5 -3 -12 -22 -16 -42 -3 -20 -66 -217 -140 -438 -120 -362 -166 -498 -333 -986 -56 -163 -177 -500 -216 -603 -14 -37 -26 -75 -26 -85 0 -9 21 -42 46 -72 103 -124 333 -468 609 -910 250 -402 394 -645 552 -935 63 -116 127 -226 141 -245 l27 -35 8 40 c4 22 10 439 14 926 l6 886 -69 45 c-134 87 -174 151 -174 278 0 122 59 223 164 278 43 22 64 27 131 27 68 0 88 -5 133 -28 142 -74 195 -207 141 -354 -18 -48 -38 -74 -117 -151 l-95 -92 7 -878 c3 -482 10 -895 14 -917 l7 -40 21 30 c12 17 56 95 99 175 110 206 155 285 313 550 200 335 601 953 819 1261 l110 156 -24 59 c-55 132 -96 244 -194 529 -130 376 -303 901 -419 1270 -32 100 -58 216 -64 287 -8 86 -18 115 -32 96z"/>
 </g>

</svg>